<svg width="895" height="733" viewBox="0 0 895 733" fill="none" xmlns="http://www.w3.org/2000/svg">
<path d="M207.254 77.8458C207.254 34.8527 242.107 0 285.1 0H609.457C652.45 0 687.303 34.8528 687.303 77.8458V311.383C687.303 354.376 652.45 389.229 609.457 389.229H285.1C242.107 389.229 207.254 354.376 207.254 311.383V77.8458Z" fill="url(#paint0_radial_167_58)"/>
<path d="M207.254 77.8458C207.254 34.8527 242.107 0 285.1 0H609.457C652.45 0 687.303 34.8528 687.303 77.8458V311.383C687.303 354.376 652.45 389.229 609.457 389.229H285.1C242.107 389.229 207.254 354.376 207.254 311.383V77.8458Z" fill="url(#paint1_linear_167_58)" fill-opacity="0.2"/>
<path d="M257.033 96.1942C267.167 86.0607 283.597 86.0607 293.73 96.1942L614.805 417.269C624.939 427.403 624.939 443.833 614.805 453.966C604.672 464.1 588.242 464.1 578.108 453.966L257.033 132.891C246.9 122.758 246.9 106.328 257.033 96.1942Z" fill="url(#paint2_radial_167_58)"/>
<path d="M257.033 96.1942C267.167 86.0607 283.597 86.0607 293.73 96.1942L614.805 417.269C624.939 427.403 624.939 443.833 614.805 453.966C604.672 464.1 588.242 464.1 578.108 453.966L257.033 132.891C246.9 122.758 246.9 106.328 257.033 96.1942Z" fill="url(#paint3_linear_167_58)" fill-opacity="0.2"/>
<path d="M596.483 77.8458C610.814 77.8458 622.431 89.4634 622.431 103.794V435.547C622.431 449.878 610.814 461.496 596.483 461.496C582.152 461.496 570.534 449.878 570.534 435.547V103.794C570.534 89.4634 582.152 77.8458 596.483 77.8458Z" fill="url(#paint4_radial_167_58)"/>
<path d="M596.483 77.8458C610.814 77.8458 622.431 89.4634 622.431 103.794V435.547C622.431 449.878 610.814 461.496 596.483 461.496C582.152 461.496 570.534 449.878 570.534 435.547V103.794C570.534 89.4634 582.152 77.8458 596.483 77.8458Z" fill="url(#paint5_linear_167_58)" fill-opacity="0.2"/>
<rect x="269.193" y="77.4277" width="77.4279" height="77.4279" rx="38.714" fill="white"/>
<rect opacity="0.8" x="408.562" y="123.886" width="77.4279" height="77.4279" rx="38.714" fill="white"/>
<rect opacity="0.5" x="547.934" y="170.34" width="77.4279" height="77.4279" rx="38.714" fill="white"/>
<path d="M269.193 207.34C269.193 186.905 285.759 170.34 306.193 170.34H309.621C330.056 170.34 346.621 186.905 346.621 207.34V315.946C346.621 321.054 342.48 325.196 337.371 325.196H278.443C273.335 325.196 269.193 321.054 269.193 315.946V207.34Z" fill="white"/>
<path opacity="0.8" d="M408.562 253.797C408.562 233.362 425.128 216.797 445.563 216.797H448.99C469.425 216.797 485.99 233.362 485.99 253.797V315.946C485.99 321.055 481.849 325.196 476.74 325.196H417.812C412.704 325.196 408.562 321.055 408.562 315.946V253.797Z" fill="white"/>
<path opacity="0.5" d="M547.934 300.252C547.934 279.817 564.499 263.252 584.934 263.252H588.362C608.796 263.252 625.362 279.817 625.362 300.252V315.944C625.362 321.053 621.22 325.194 616.112 325.194H557.184C552.075 325.194 547.934 321.053 547.934 315.944V300.252Z" fill="white"/>
<path d="M176.636 663H158.636L191.409 569.909H212.227L245.045 663H227.045L202.182 589H201.455L176.636 663ZM177.227 626.5H226.318V640.045H177.227V626.5ZM257.08 663V593.182H273.534V663H257.08ZM265.352 583.273C262.746 583.273 260.504 582.409 258.625 580.682C256.746 578.924 255.807 576.818 255.807 574.364C255.807 571.879 256.746 569.773 258.625 568.045C260.504 566.288 262.746 565.409 265.352 565.409C267.989 565.409 270.231 566.288 272.08 568.045C273.958 569.773 274.898 571.879 274.898 574.364C274.898 576.818 273.958 578.924 272.08 580.682C270.231 582.409 267.989 583.273 265.352 583.273ZM290.455 663V593.182H306.409V604.818H307.136C308.409 600.788 310.591 597.682 313.682 595.5C316.803 593.288 320.364 592.182 324.364 592.182C325.273 592.182 326.288 592.227 327.409 592.318C328.561 592.379 329.515 592.485 330.273 592.636V607.773C329.576 607.53 328.47 607.318 326.955 607.136C325.47 606.924 324.03 606.818 322.636 606.818C319.636 606.818 316.939 607.47 314.545 608.773C312.182 610.045 310.318 611.818 308.955 614.091C307.591 616.364 306.909 618.985 306.909 621.955V663H290.455ZM376.614 631.727H391.886L400.932 643.455L407.386 651.091L422.886 671H406.523L395.977 657.636L391.477 651.273L376.614 631.727ZM425.114 616.455C425.114 626.485 423.235 635.076 419.477 642.227C415.75 649.348 410.659 654.803 404.205 658.591C397.78 662.379 390.492 664.273 382.341 664.273C374.189 664.273 366.886 662.379 360.432 658.591C354.008 654.773 348.917 649.303 345.159 642.182C341.432 635.03 339.568 626.455 339.568 616.455C339.568 606.424 341.432 597.848 345.159 590.727C348.917 583.576 354.008 578.106 360.432 574.318C366.886 570.53 374.189 568.636 382.341 568.636C390.492 568.636 397.78 570.53 404.205 574.318C410.659 578.106 415.75 583.576 419.477 590.727C423.235 597.848 425.114 606.424 425.114 616.455ZM408.159 616.455C408.159 609.394 407.053 603.439 404.841 598.591C402.659 593.712 399.629 590.03 395.75 587.545C391.871 585.03 387.402 583.773 382.341 583.773C377.28 583.773 372.811 585.03 368.932 587.545C365.053 590.03 362.008 593.712 359.795 598.591C357.614 603.439 356.523 609.394 356.523 616.455C356.523 623.515 357.614 629.485 359.795 634.364C362.008 639.212 365.053 642.894 368.932 645.409C372.811 647.894 377.28 649.136 382.341 649.136C387.402 649.136 391.871 647.894 395.75 645.409C399.629 642.894 402.659 639.212 404.841 634.364C407.053 629.485 408.159 623.515 408.159 616.455ZM484.955 633.636V593.182H501.409V663H485.455V650.591H484.727C483.152 654.5 480.561 657.697 476.955 660.182C473.379 662.667 468.97 663.909 463.727 663.909C459.152 663.909 455.106 662.894 451.591 660.864C448.106 658.803 445.379 655.818 443.409 651.909C441.439 647.97 440.455 643.212 440.455 637.636V593.182H456.909V635.091C456.909 639.515 458.121 643.03 460.545 645.636C462.97 648.242 466.152 649.545 470.091 649.545C472.515 649.545 474.864 648.955 477.136 647.773C479.409 646.591 481.273 644.833 482.727 642.5C484.212 640.136 484.955 637.182 484.955 633.636ZM549.239 664.364C542.239 664.364 536.193 662.909 531.102 660C526.042 657.061 522.148 652.909 519.42 647.545C516.693 642.152 515.33 635.803 515.33 628.5C515.33 621.318 516.693 615.015 519.42 609.591C522.178 604.136 526.027 599.894 530.966 596.864C535.905 593.803 541.708 592.273 548.375 592.273C552.678 592.273 556.739 592.97 560.557 594.364C564.405 595.727 567.799 597.848 570.739 600.727C573.708 603.606 576.042 607.273 577.739 611.727C579.436 616.152 580.284 621.424 580.284 627.545V632.591H523.057V621.5H564.511C564.481 618.348 563.799 615.545 562.466 613.091C561.133 610.606 559.269 608.652 556.875 607.227C554.511 605.803 551.754 605.091 548.602 605.091C545.239 605.091 542.284 605.909 539.739 607.545C537.193 609.152 535.208 611.273 533.784 613.909C532.39 616.515 531.678 619.379 531.648 622.5V632.182C531.648 636.242 532.39 639.727 533.875 642.636C535.36 645.515 537.436 647.727 540.102 649.273C542.769 650.788 545.89 651.545 549.466 651.545C551.86 651.545 554.027 651.212 555.966 650.545C557.905 649.848 559.587 648.833 561.011 647.5C562.436 646.167 563.511 644.515 564.239 642.545L579.602 644.273C578.633 648.333 576.784 651.879 574.057 654.909C571.36 657.909 567.905 660.242 563.693 661.909C559.481 663.545 554.663 664.364 549.239 664.364ZM638.705 633.636V593.182H655.159V663H639.205V650.591H638.477C636.902 654.5 634.311 657.697 630.705 660.182C627.129 662.667 622.72 663.909 617.477 663.909C612.902 663.909 608.856 662.894 605.341 660.864C601.856 658.803 599.129 655.818 597.159 651.909C595.189 647.97 594.205 643.212 594.205 637.636V593.182H610.659V635.091C610.659 639.515 611.871 643.03 614.295 645.636C616.72 648.242 619.902 649.545 623.841 649.545C626.265 649.545 628.614 648.955 630.886 647.773C633.159 646.591 635.023 644.833 636.477 642.5C637.962 640.136 638.705 637.182 638.705 633.636ZM702.989 664.364C695.989 664.364 689.943 662.909 684.852 660C679.792 657.061 675.898 652.909 673.17 647.545C670.443 642.152 669.08 635.803 669.08 628.5C669.08 621.318 670.443 615.015 673.17 609.591C675.928 604.136 679.777 599.894 684.716 596.864C689.655 593.803 695.458 592.273 702.125 592.273C706.428 592.273 710.489 592.97 714.307 594.364C718.155 595.727 721.549 597.848 724.489 600.727C727.458 603.606 729.792 607.273 731.489 611.727C733.186 616.152 734.034 621.424 734.034 627.545V632.591H676.807V621.5H718.261C718.231 618.348 717.549 615.545 716.216 613.091C714.883 610.606 713.019 608.652 710.625 607.227C708.261 605.803 705.504 605.091 702.352 605.091C698.989 605.091 696.034 605.909 693.489 607.545C690.943 609.152 688.958 611.273 687.534 613.909C686.14 616.515 685.428 619.379 685.398 622.5V632.182C685.398 636.242 686.14 639.727 687.625 642.636C689.11 645.515 691.186 647.727 693.852 649.273C696.519 650.788 699.64 651.545 703.216 651.545C705.61 651.545 707.777 651.212 709.716 650.545C711.655 649.848 713.337 648.833 714.761 647.5C716.186 646.167 717.261 644.515 717.989 642.545L733.352 644.273C732.383 648.333 730.534 651.879 727.807 654.909C725.11 657.909 721.655 660.242 717.443 661.909C713.231 663.545 708.413 664.364 702.989 664.364Z" fill="#888888"/>
<defs>
<radialGradient id="paint0_radial_167_58" cx="0" cy="0" r="1" gradientUnits="userSpaceOnUse" gradientTransform="translate(485.992 418.107) rotate(28.6105) scale(291.048 302.703)">
<stop stop-color="#00A659"/>
<stop offset="1" stop-color="#00C173"/>
</radialGradient>
<linearGradient id="paint1_linear_167_58" x1="416.308" y1="-23.2282" x2="478.249" y2="147.112" gradientUnits="userSpaceOnUse">
<stop stop-color="white"/>
<stop offset="1" stop-color="white" stop-opacity="0"/>
</linearGradient>
<radialGradient id="paint2_radial_167_58" cx="0" cy="0" r="1" gradientUnits="userSpaceOnUse" gradientTransform="translate(485.992 418.107) rotate(28.6105) scale(291.048 302.703)">
<stop stop-color="#00A659"/>
<stop offset="1" stop-color="#00C173"/>
</radialGradient>
<linearGradient id="paint3_linear_167_58" x1="416.308" y1="-23.2282" x2="478.249" y2="147.112" gradientUnits="userSpaceOnUse">
<stop stop-color="white"/>
<stop offset="1" stop-color="white" stop-opacity="0"/>
</linearGradient>
<radialGradient id="paint4_radial_167_58" cx="0" cy="0" r="1" gradientUnits="userSpaceOnUse" gradientTransform="translate(485.992 418.107) rotate(28.6105) scale(291.048 302.703)">
<stop stop-color="#00A659"/>
<stop offset="1" stop-color="#00C173"/>
</radialGradient>
<linearGradient id="paint5_linear_167_58" x1="416.308" y1="-23.2282" x2="478.249" y2="147.112" gradientUnits="userSpaceOnUse">
<stop stop-color="white"/>
<stop offset="1" stop-color="white" stop-opacity="0"/>
</linearGradient>
</defs>
</svg>
