<?xml version="1.0" encoding="UTF-8"?>
<svg version="1.1" xmlns="http://www.w3.org/2000/svg" width="2000" height="2000">
<path d="M0 0 C660 0 1320 0 2000 0 C2000 660 2000 1320 2000 2000 C1340 2000 680 2000 0 2000 C0 1340 0 680 0 0 Z " fill="#FEFEFE" transform="translate(0,0)"/>
<path d="M0 0 C20.10872713 14.96864174 34.41381344 37.44189426 39.21020508 62.09765625 C43.07199018 89.45640993 38.32762374 117.80825092 21.65234375 140.22998047 C18.76293933 144.00011245 15.77253092 147.64879267 12.65234375 151.22998047 C12.11222656 151.85517578 11.57210938 152.48037109 11.015625 153.12451172 C-5.97353122 171.39748327 -32.96161198 182.52207838 -57.59765625 183.47998047 C-74.61846116 184.66982347 -89.75000214 195.54106183 -102.34765625 206.22998047 C-103.07210938 206.79716797 -103.7965625 207.36435547 -104.54296875 207.94873047 C-125.33974997 224.94394953 -140.99261677 256.41018921 -143.93359375 282.96826172 C-145.65821634 302.25085484 -143.40966209 318.92934964 -137.55371094 337.28051758 C-136.81510214 339.59598648 -136.08058529 341.9127084 -135.34765625 344.22998047 C-134.82558594 345.87740234 -134.82558594 345.87740234 -134.29296875 347.55810547 C-127.8683812 370.93136684 -134.63588784 394.71677677 -141.76171875 417.02294922 C-144.4558126 425.70347808 -145.6872981 433.42763708 -145.59765625 442.54248047 C-145.58871338 443.5650293 -145.57977051 444.58757812 -145.57055664 445.64111328 C-145.17464947 471.36482262 -133.70914687 499.31445892 -115.0546875 517.46044922 C-113.34765625 519.22998047 -113.34765625 519.22998047 -113.34765625 521.22998047 C-112.68765625 521.22998047 -112.02765625 521.22998047 -111.34765625 521.22998047 C-110.19754513 522.34523974 -109.05402218 523.46781408 -107.9375 524.61669922 C-91.95643281 540.83335953 -72.84119732 548.5274356 -50.50585938 551.19702148 C-21.88379051 554.67164635 1.50630275 566.50956185 19.65234375 589.22998047 C35.59468737 610.56950582 43.93569575 637.80617966 40.12109375 664.43310547 C39.45924361 668.40754175 38.58626531 672.31077251 37.65234375 676.22998047 C37.40871094 677.29345703 37.16507813 678.35693359 36.9140625 679.45263672 C30.22048943 704.54560496 12.66404815 726.80876526 -9.34765625 740.22998047 C-33.12609344 753.43751077 -60.77609289 757.29854014 -87.23046875 750.48779297 C-113.96107045 742.43297166 -135.37950636 724.89563199 -149.27734375 700.89794922 C-154.00032007 692.02969969 -156.9521586 682.95550294 -159.34765625 673.22998047 C-159.71890625 671.74111328 -159.71890625 671.74111328 -160.09765625 670.22216797 C-164.60784082 648.23501818 -159.33745545 627.46539453 -152.36328125 606.67529297 C-145.40784267 583.08030517 -151.42076674 556.58732796 -162.34765625 535.22998047 C-162.68812988 534.5612793 -163.02860352 533.89257812 -163.37939453 533.20361328 C-177.57056023 505.78339482 -198.76104893 483.59684981 -228.59765625 473.84716797 C-234.94106626 471.94103109 -241.387804 470.83591278 -247.91015625 469.72998047 C-275.97426227 464.93998534 -298.60312693 452.78478477 -315.34765625 429.22998047 C-331.18367219 404.94522051 -337.42689546 376.60202246 -332.22265625 347.91748047 C-325.85232138 322.0473412 -310.19534042 298.33777219 -287.53662109 284.09130859 C-273.88964874 275.9358343 -260.00246511 272.17641521 -244.40917969 269.74194336 C-225.10621789 266.67626825 -209.37628719 261.244465 -194.34765625 248.22998047 C-193.63867188 247.64216797 -192.9296875 247.05435547 -192.19921875 246.44873047 C-168.08509055 226.1226454 -155.07311997 196.61187664 -149.34765625 166.22998047 C-149.15171875 165.24255859 -148.95578125 164.25513672 -148.75390625 163.23779297 C-148.24326551 159.45708748 -148.20220918 155.72404328 -148.22265625 151.91748047 C-148.21878906 151.20914063 -148.21492188 150.50080078 -148.2109375 149.77099609 C-148.22616549 141.37275792 -149.15526112 134.04266045 -152.09765625 126.16748047 C-162.64737728 95.94551913 -164.1682853 65.52538667 -150.09765625 36.10498047 C-146.74111398 29.66327594 -142.90259636 23.88084602 -138.34765625 18.22998047 C-137.6825 17.39982422 -137.01734375 16.56966797 -136.33203125 15.71435547 C-102.20316145 -24.48186896 -42.14929732 -29.99365413 0 0 Z " fill="#1E3159" transform="translate(1331.34765625,456.77001953125)"/>
<path d="M0 0 C0.74008301 0.27376465 1.48016602 0.5475293 2.24267578 0.82958984 C28.70578163 10.69111889 48.60626022 28.57907684 61 54 C72.51204902 79.63655803 73.46350335 108.20447783 63.49609375 134.46875 C58.32634323 146.670981 51.6010773 156.93934595 43 167 C42.41734375 167.68578125 41.8346875 168.3715625 41.234375 169.078125 C27.23334466 184.21055173 8.26702123 191.57508278 -11.04931641 196.99609375 C-20.39071749 199.67143535 -28.60283467 203.15820865 -37 208 C-37.93457031 208.51304687 -38.86914062 209.02609375 -39.83203125 209.5546875 C-60.62970608 221.37517857 -75.4493364 240.90369214 -86 262 C-86.34901367 262.6914209 -86.69802734 263.3828418 -87.05761719 264.09521484 C-95.57330588 281.25609348 -100.94875011 299.83685445 -102 319 C-102.04914551 319.80228027 -102.09829102 320.60456055 -102.14892578 321.43115234 C-103.00869673 337.52027106 -100.21184838 352.08755868 -94.875 367.25 C-85.95055169 392.93499758 -88.40111501 421.64402008 -100 446 C-112.14875026 470.33868273 -132.7799819 488.61903853 -158.5 497.6640625 C-182.90415237 505.54953441 -209.0522795 505.08729489 -232.515625 494.3984375 C-256.77451778 481.80910689 -274.94684716 462.05717214 -284.9375 436.6875 C-285.21996582 435.97134521 -285.50243164 435.25519043 -285.79345703 434.51733398 C-289.6143758 424.29502924 -290.37298216 414.37022828 -290.37060547 403.54321289 C-290.37495892 401.33335046 -290.41133162 399.12552419 -290.44921875 396.91601562 C-290.55519091 383.71838407 -287.85290745 371.93143934 -282.3125 359.875 C-281.79985596 358.7466272 -281.79985596 358.7466272 -281.27685547 357.59545898 C-269.93080778 333.43562614 -249.39570023 315.57526279 -224.61230469 306.21557617 C-218.55690718 304.17787516 -212.36692391 302.89166215 -206.125 301.5625 C-174.72020663 294.58264227 -149.49380228 278.47595282 -132 251 C-131.40703125 250.11441406 -130.8140625 249.22882813 -130.203125 248.31640625 C-121.54851375 234.63973848 -115.30816734 218.01291094 -113 202 C-112.82082031 200.80246094 -112.64164063 199.60492187 -112.45703125 198.37109375 C-109.40457741 173.00923616 -115.60037088 153.07193923 -124.91845703 129.81396484 C-129.16648497 118.76142081 -130.32544183 108.75043374 -130.25 96.9375 C-130.25773438 95.72255859 -130.26546875 94.50761719 -130.2734375 93.25585938 C-130.25886034 86.53214347 -129.75800508 80.48264373 -128 74 C-127.81179688 73.02933594 -127.62359375 72.05867188 -127.4296875 71.05859375 C-122.5387631 47.94725381 -106.11863631 26.40060559 -87 13 C-62.0377047 -3.23974871 -28.66296157 -11.14496315 0 0 Z " fill="#273E65" transform="translate(918,430)"/>
<path d="M0 0 C0.82757812 0.19335938 1.65515625 0.38671875 2.5078125 0.5859375 C25.68769503 6.47653471 47.53129377 23.35556 60.1875 43.3125 C68.61734091 57.6633006 75.64517115 74.08649131 76 91 C76.02433105 91.6604834 76.04866211 92.3209668 76.07373047 93.00146484 C77.02507425 120.35407581 69.22483014 146.13442916 51 167 C50.47148438 167.67160156 49.94296875 168.34320312 49.3984375 169.03515625 C37.61010523 183.63991273 19.81065136 193.08502205 2 198 C1.10788818 198.26039063 0.21577637 198.52078125 -0.70336914 198.7890625 C-7.96843514 200.78782893 -14.66767361 201.47780897 -22.1875 201.375 C-23.81933228 201.35977295 -23.81933228 201.35977295 -25.48413086 201.34423828 C-52.93932426 200.82097316 -76.69117782 190.68831572 -96.6875 171.75 C-118.71929194 148.63071559 -125.68904032 120.94237087 -125.09326172 89.78955078 C-124.22106949 63.70141368 -109.8872834 40.02913816 -91.32421875 22.46875 C-66.55491433 0.7495223 -32.06854149 -9.10168154 0 0 Z " fill="#0D1542" transform="translate(911,1024)"/>
<path d="M0 0 C2.73761204 2.46197147 5.06431434 5.08996751 7.25 8.0625 C7.76046875 7.49402344 8.2709375 6.92554688 8.796875 6.33984375 C18.7866856 -4.2699019 29.00256431 -9.78461408 43.4375 -10.375 C55.95607297 -10.18815563 67.24398227 -4.94351773 76.0625 3.875 C81.31047908 11.52205523 83.40920415 18.56582091 83.36352539 27.76855469 C83.36367142 28.53967087 83.36381744 29.31078705 83.3639679 30.10527039 C83.36327249 32.6483341 83.35549749 35.19132412 83.34765625 37.734375 C83.34579075 39.49985718 83.34436747 41.26533987 83.34336853 43.03082275 C83.33955375 47.67341546 83.32973232 52.3159768 83.31866455 56.95855713 C83.30662776 62.53111625 83.30204324 68.10368587 83.29621124 73.67625427 C83.28652003 82.13835799 83.26735619 90.60039289 83.25 99.0625 C71.04 99.0625 58.83 99.0625 46.25 99.0625 C46.23582031 94.31875 46.22164062 89.575 46.20703125 84.6875 C46.18695862 81.67049955 46.16542689 78.65364931 46.13867188 75.63671875 C46.09640344 70.85492123 46.05935087 66.07350477 46.05444336 61.29150391 C46.05014422 57.43319921 46.02154989 53.57574967 45.97656822 49.7177124 C45.96364439 48.25068149 45.95926735 46.78354797 45.96384621 45.31646729 C46.03126269 33.74734892 46.03126269 33.74734892 40.25 24.0625 C35.7603414 20.26184697 31.52592409 19.40816315 25.6796875 19.68359375 C20.5058553 20.49044539 17.41461906 22.61568884 14.09277344 26.74243164 C10.84450849 32.74171281 11.64438219 39.97983383 11.640625 46.62109375 C11.62562912 48.13568376 11.60889903 49.6502575 11.59051514 51.16481018 C11.54698667 55.13167102 11.52687506 59.09831132 11.51177979 63.06536865 C11.48869971 67.83553014 11.4362869 72.60545022 11.38883972 77.37541962 C11.3201912 84.60450913 11.28860931 91.83290673 11.25 99.0625 C-0.96 99.0625 -13.17 99.0625 -25.75 99.0625 C-25.78738281 94.463125 -25.82476563 89.86375 -25.86328125 85.125 C-25.89358202 82.19918235 -25.92474349 79.27342398 -25.95898438 76.34765625 C-26.01316911 71.7108063 -26.06428401 67.07407362 -26.09643555 62.43701172 C-26.12257753 58.69557581 -26.16305519 54.95453703 -26.21318626 51.21334839 C-26.22978179 49.79097459 -26.24134139 48.36853222 -26.24761391 46.94607544 C-26.29480422 36.13861633 -26.29480422 36.13861633 -29.75 26.0625 C-33.86328284 22.05468595 -37.78861588 19.77842731 -43.5625 19.6875 C-48.82403414 19.81923208 -51.58931036 20.81716208 -55.75 24.0625 C-61.13280707 30.74958388 -60.35474789 38.44214757 -60.359375 46.62109375 C-60.37437088 48.13568376 -60.39110097 49.6502575 -60.40948486 51.16481018 C-60.45301333 55.13167102 -60.47312494 59.09831132 -60.48822021 63.06536865 C-60.51130029 67.83553014 -60.5637131 72.60545022 -60.61116028 77.37541962 C-60.6798088 84.60450913 -60.71139069 91.83290673 -60.75 99.0625 C-72.96 99.0625 -85.17 99.0625 -97.75 99.0625 C-97.75 64.0825 -97.75 29.1025 -97.75 -6.9375 C-85.54 -6.9375 -73.33 -6.9375 -60.75 -6.9375 C-60.255 -1.9875 -60.255 -1.9875 -59.75 3.0625 C-58.84121094 2.26585937 -58.84121094 2.26585937 -57.9140625 1.453125 C-41.05825156 -12.75762023 -17.50341433 -14.49327301 0 0 Z " fill="#17285A" transform="translate(998.75,1388.9375)"/>
<path d="M0 0 C0.99 0.99 1.98 1.98 3 3 C3.33 0.03 3.66 -2.94 4 -6 C15.88 -6 27.76 -6 40 -6 C40 28.98 40 63.96 40 100 C28.12 100 16.24 100 4 100 C4 96.37 4 92.74 4 89 C2.659375 90.19625 1.31875 91.3925 -0.0625 92.625 C-12.26592695 102.20366752 -24.41652689 104.55559401 -39.60888672 103.30273438 C-52.70513881 101.64464242 -63.54049715 93.50013693 -71.95703125 83.7578125 C-75.34961777 79.17814504 -77.74885589 74.21822585 -80 69 C-80.36222656 68.18144531 -80.72445312 67.36289063 -81.09765625 66.51953125 C-85.35079599 54.64388132 -85.10675316 36.01879498 -80.25390625 24.453125 C-79.63322266 23.23882813 -79.63322266 23.23882813 -79 22 C-78.57589844 21.14921875 -78.15179687 20.2984375 -77.71484375 19.421875 C-70.55957772 6.42679575 -59.62583629 -3.78227948 -45.1875 -8 C-29.24822112 -11.24260099 -13.66953851 -9.00360684 0 0 Z " fill="#17285B" transform="translate(836,1388)"/>
<path d="M0 0 C10.05941869 9.55725769 15.8926982 21.1094741 16.61328125 34.890625 C16.89417426 52.20065672 13.05220037 65.3035232 0.8046875 78.08984375 C-14.14533646 92.00883157 -31.7217515 95.99755097 -51.609375 95.5234375 C-69.97898857 94.83401684 -85.5826589 88.35496117 -98.3984375 75.015625 C-105.05729043 66.71895725 -109.91841868 57.01133654 -110.57421875 46.3046875 C-110.65414063 45.05816406 -110.7340625 43.81164063 -110.81640625 42.52734375 C-111.37415615 29.29592246 -108.17776674 18.25861152 -100.57421875 7.3046875 C-99.87296875 6.2940625 -99.17171875 5.2834375 -98.44921875 4.2421875 C-73.32517796 -24.00235517 -27.85337596 -22.95845919 0 0 Z " fill="#17285B" transform="translate(1207.57421875,1395.6953125)"/>
<path d="M0 0 C12.21 0 24.42 0 37 0 C37.06790404 16.33423089 37.12309015 32.66833998 37.15543652 49.00267315 C37.17085936 56.58817816 37.19186041 64.1735888 37.22631836 71.7590332 C37.25636195 78.37591092 37.27560824 84.99272023 37.28226548 91.60966426 C37.28615262 95.10840476 37.29519032 98.60694968 37.31719017 102.10562706 C37.34163685 106.02577562 37.34196048 109.94573853 37.34057617 113.8659668 C37.351362 115.006772 37.36214783 116.14757721 37.3732605 117.32295227 C37.3234307 130.45064053 34.88747934 144.16227695 25.5 153.9375 C16.53945893 162.13054291 6.31567538 163.72002315 -5.51953125 163.36328125 C-13.86095276 162.86166504 -22.57418465 160.86194942 -30 157 C-28.66409797 150.15350207 -26.62715066 143.95365271 -24 137.5 C-23.64421875 136.59507812 -23.2884375 135.69015625 -22.921875 134.7578125 C-22.40367188 133.47003906 -22.40367188 133.47003906 -21.875 132.15625 C-21.56304688 131.38087891 -21.25109375 130.60550781 -20.9296875 129.80664062 C-20 128 -20 128 -18 127 C-16.88625 127.4640625 -16.88625 127.4640625 -15.75 127.9375 C-11.88798837 129.42964086 -8.71261885 129.5233002 -4.75 128.3125 C-2.35451535 126.51588651 -1.93450375 124.82505569 -1 122 C-0.69420973 119.45214273 -0.69420973 119.45214273 -0.7215271 116.76713562 C-0.71036362 115.7337355 -0.69920013 114.70033539 -0.68769836 113.63562012 C-0.68553818 112.5128064 -0.68337799 111.38999268 -0.68115234 110.2331543 C-0.67110672 109.04248856 -0.6610611 107.85182281 -0.65071106 106.62507629 C-0.62515328 103.36926961 -0.60827731 100.1135577 -0.59528303 96.85768104 C-0.57962952 93.45168609 -0.5528464 90.04577894 -0.5272522 86.6398468 C-0.48050364 80.19434035 -0.44374061 73.74881731 -0.41057932 67.3032282 C-0.37233016 59.96341526 -0.32292734 52.62369059 -0.27259517 45.28395212 C-0.16933367 30.18936071 -0.08152684 15.09472737 0 0 Z " fill="#1D3169" transform="translate(1241,1382)"/>
<path d="M0 0 C1.37285156 0.50466797 1.37285156 0.50466797 2.7734375 1.01953125 C6.47708452 2.43625583 9.68951939 3.79301293 13 6 C11.37317535 11.70323584 8.66802013 16.68013903 5.875 21.875 C5.17310547 23.19371094 5.17310547 23.19371094 4.45703125 24.5390625 C3.3087907 26.69494271 2.15636097 28.84846777 1 31 C0.36078613 30.78851318 -0.27842773 30.57702637 -0.93701172 30.35913086 C-9.50984535 27.63504541 -19.04196228 25.72520836 -27.5625 29.6875 C-33.77272081 33.46130156 -38.69006342 39.07019026 -41 46 C-41.68342642 54.08907992 -41.47444812 61.04784446 -37 68 C-33.17389354 72.53091554 -28.66480073 76.11173309 -23 78 C-20.81590098 78.1476894 -18.62639684 78.22116711 -16.4375 78.25 C-15.28121094 78.27578125 -14.12492188 78.3015625 -12.93359375 78.328125 C-8.01672845 77.91797933 -3.65869996 76.56608851 1 75 C2.6326083 78.03764089 4.25469108 81.08078323 5.875 84.125 C6.33519531 84.9809375 6.79539062 85.836875 7.26953125 86.71875 C9.57975593 91.07134722 11.64116434 95.23626578 13 100 C11.43880578 100.79423861 9.87598036 101.58527123 8.3125 102.375 C7.44238281 102.81585937 6.57226562 103.25671875 5.67578125 103.7109375 C-9.06976221 110.81462997 -26.96128947 111.10554335 -42.46875 106.22265625 C-51.18802644 103.08748432 -58.78539721 97.8687715 -65 91 C-65.92232422 90.06607422 -65.92232422 90.06607422 -66.86328125 89.11328125 C-78.0516101 77.37712463 -81.67112697 64.32270934 -81.30859375 48.546875 C-80.55313228 33.51287832 -72.6925198 21.7585973 -62.09375 11.58203125 C-54.35388886 4.8372235 -44.98646368 0.26285039 -35 -2 C-34.38729248 -2.17055908 -33.77458496 -2.34111816 -33.14331055 -2.5168457 C-22.75260985 -4.85916222 -9.84263215 -3.79919189 0 0 Z " fill="#17295C" transform="translate(733,1382)"/>
<path d="M0 0 C11.88 0 23.76 0 36 0 C36 34.98 36 69.96 36 106 C24.12 106 12.24 106 0 106 C0 71.02 0 36.04 0 0 Z " fill="#15275A" transform="translate(1303,1382)"/>
<path d="M0 0 C5.53266199 3.96088302 10.26493286 8.24408231 12 15 C12.91413316 23.14149847 12.79999417 30.17371071 8 37 C7.401875 37.9075 6.80375 38.815 6.1875 39.75 C0.88615881 45.20280808 -5.16855476 47.11923803 -12.625 47.375 C-19.91966609 47.28604066 -25.68582656 45.34855283 -30.8828125 40.09765625 C-36.84094587 32.59961884 -37.78695086 25.40533202 -37 16 C-34.99844935 8.93570361 -30.22162877 3.32256958 -24.3125 -0.9375 C-16.61425219 -4.47453278 -7.29351073 -4.26601571 0 0 Z " fill="#FBFCFC" transform="translate(1173,1413)"/>
<path d="M0 0 C6.19781141 3.51309117 10.03172056 8.67895072 13.125 15 C14.65367857 23.32280556 14.1084207 30.68191529 9.6875 38.0625 C4.90421797 43.58246972 -0.70373472 47.48068424 -8.06640625 48.41015625 C-16.39605356 48.8250429 -22.90910763 46.99083759 -29.1953125 41.3828125 C-35.34637238 34.69687785 -35.83092517 27.6055103 -35.68359375 18.765625 C-35.0582877 12.52572888 -32.93602959 8.50619087 -28.375 4.2578125 C-19.90754285 -2.44559108 -10.16605418 -4.50788335 0 0 Z " fill="#FBFCFC" transform="translate(827.3125,1411.9375)"/>
<path d="M0 0 C5.92083057 3.55249834 10.00805045 8.59594308 12.4453125 15.0546875 C13.39101992 21.83415638 12.568012 27.50799152 8.4453125 33.0546875 C3.1014543 38.71092154 -1.49780924 42.03442193 -9.3671875 42.4296875 C-15.44532773 42.2761535 -19.8648755 40.57713342 -24.3125 36.40625 C-29.57533778 30.5840768 -30.98501873 25.56313728 -30.796875 17.765625 C-30.19561732 11.03541802 -27.01393803 7.07413376 -22.37109375 2.53515625 C-16.28324037 -2.42677156 -7.25347377 -2.68400711 0 0 Z " fill="#081337" transform="translate(1269.5546875,1317.9453125)"/>
<path d="M0 0 C5.58974127 5.28110524 9.22045734 10.30206751 9.5 18.1875 C9.37838001 24.61598523 7.0244767 29.07712076 3 34 C-0.0625 36.5 -0.0625 36.5 -3 38 C-3.7425 38.4125 -4.485 38.825 -5.25 39.25 C-11.87191335 41.05597637 -17.26074572 40.8246759 -23.3125 37.4375 C-28.06797483 34.27466061 -31.81884312 30.72103017 -33.59765625 25.1171875 C-34.73791385 19.11699702 -35.10918118 13.08455749 -31.9375 7.6875 C-24.28976264 -2.87159192 -11.92423768 -7.33799242 0 0 Z " fill="#081237" transform="translate(1334,1320)"/>
</svg>
